<svg width="24" height="24" viewBox="0 0 24 24" fill="none" xmlns="http://www.w3.org/2000/svg">
<path d="M19.9885 24H4.0115C1.8037 24 0 22.1963 0 19.9885V4.0115C0 1.8037 1.8037 0 4.0115 0H19.9885C22.1963 0 24 1.8037 24 4.0115V19.9885C24 22.2062 22.2062 24 19.9885 24Z" fill="#1F313D"/>
<path d="M12.0049 18.1651C10.3589 18.1651 8.81146 17.5245 7.64842 16.3614C6.48538 15.1984 5.84473 13.6509 5.84473 12.005C5.84473 10.359 6.48538 8.81152 7.64842 7.64848C8.81146 6.48544 10.3589 5.84479 12.0049 5.84479C13.6509 5.84479 15.1983 6.48544 16.3614 7.64848C17.5244 8.81152 18.1651 10.359 18.1651 12.005C18.1651 13.6509 17.5244 15.1984 16.3614 16.3614C15.1885 17.5245 13.6509 18.1651 12.0049 18.1651ZM12.0049 7.15567C9.33384 7.15567 7.15561 9.32405 7.15561 12.005C7.15561 14.676 9.32399 16.8542 12.0049 16.8542C14.6759 16.8542 16.8542 14.6859 16.8542 12.005C16.8443 9.3339 14.6759 7.15567 12.0049 7.15567Z" fill="white"/>
<path d="M19.3658 5.64236C20.019 5.64236 20.5485 5.11281 20.5485 4.45958C20.5485 3.80634 20.019 3.27679 19.3658 3.27679C18.7125 3.27679 18.183 3.80634 18.183 4.45958C18.183 5.11281 18.7125 5.64236 19.3658 5.64236Z" fill="white"/>
</svg>
