<svg width="24" height="24" viewBox="0 0 24 24" fill="none" xmlns="http://www.w3.org/2000/svg">
<path d="M5.41934 7.89215H0.404419V23.8845H5.41934V7.89215Z" fill="#1F313D"/>
<path d="M18.985 7.54548C18.8002 7.52237 18.6037 7.51081 18.4073 7.49925C15.5994 7.3837 14.0163 9.04764 13.4617 9.76406C13.3115 9.9605 13.2422 10.0761 13.2422 10.0761V7.93835H8.44678V23.9307H13.2422H13.4617C13.4617 22.3014 13.4617 20.6837 13.4617 19.0544C13.4617 18.1762 13.4617 17.298 13.4617 16.4198C13.4617 15.3336 13.3808 14.1781 13.9239 13.1844C14.3861 12.3524 15.2181 11.9364 16.154 11.9364C18.9273 11.9364 18.985 14.4439 18.985 14.675C18.985 14.6865 18.985 14.6981 18.985 14.6981V24H24V13.5657C24 9.99517 22.1858 7.89213 18.985 7.54548Z" fill="#1F313D"/>
<path d="M2.91188 5.82379C4.52007 5.82379 5.82378 4.52009 5.82378 2.91189C5.82378 1.3037 4.52007 0 2.91188 0C1.30369 0 0 1.3037 0 2.91189C0 4.52009 1.30369 5.82379 2.91188 5.82379Z" fill="#1F313D"/>
</svg>
