<svg width="124" height="70" viewBox="0 0 124 70" fill="none" xmlns="http://www.w3.org/2000/svg">
<path d="M23.231 13.6669C20.7645 11.421 17.4986 10.055 13.913 10.055C6.23026 10.055 0 16.3344 0 24.0835C0 31.8326 6.23026 38.1167 13.913 38.1167C17.4986 38.1167 20.7645 36.7484 23.231 34.5024V38.1167H29.4133V10.0527H23.231V13.6669ZM14.9476 31.8833C10.6746 31.8833 7.21459 28.3934 7.21459 24.0835C7.21459 19.7736 10.6746 16.2883 14.9476 16.2883C19.2206 16.2883 22.676 19.7782 22.676 24.0835C22.676 28.3888 19.2161 31.8833 14.9476 31.8833ZM0.48417 70H7.1849V60.8987H24.0326V54.663H7.1849V48.1716H29.4156V41.936H0.48417V70ZM40.4602 38.119V37.398C40.4602 32.2818 41.0951 27.1265 46.341 21.6947C49.7964 18.115 54.7317 16.6385 61.0054 16.6385V10.0642C52.9755 10.0642 46.5351 12.529 41.8693 17.3871C41.3668 17.91 40.8986 18.4468 40.4602 18.9973V10.055H34.2779C34.2779 10.055 34.2733 38.066 34.2756 38.1397L40.4624 38.119H40.4602ZM71.6663 27.2048H92.7916V20.9691H71.6663V10.0527H64.9655V38.1167H71.6663V27.2048ZM78.8809 48.1716V41.9383C71.1981 41.9383 64.6093 47.1351 64.6093 55.9668C64.6093 64.7986 71.1981 70 78.8809 70V63.7666C74.6078 63.7666 71.1478 60.2768 71.1478 55.9668C71.1478 51.6569 74.6078 48.1716 78.8809 48.1716ZM96.1739 0V6.23568H123.998V0H96.1739ZM54.8825 45.5502C52.4159 43.3043 49.1501 41.9383 45.5645 41.9383C37.8817 41.9383 31.6515 48.2177 31.6515 55.9668C31.6515 63.7159 37.8817 70 45.5645 70C49.1501 70 52.4159 68.6317 54.8825 66.3857V70H61.0648V41.936H54.8825V45.5502ZM46.6013 63.7643C42.3283 63.7643 38.8683 60.2744 38.8683 55.9645C38.8683 51.6546 42.3283 48.1693 46.6013 48.1693C50.8744 48.1693 54.3298 51.6592 54.3298 55.9645C54.3298 60.2698 50.8698 63.7643 46.6013 63.7643ZM123.998 24.0835C123.998 16.3344 117.772 10.055 110.089 10.055C102.406 10.055 96.1762 16.3344 96.1762 24.0835C96.1762 31.8326 102.406 38.1167 110.089 38.1167C117.772 38.1167 123.998 31.8326 123.998 24.0835ZM102.838 24.0835C102.838 19.6745 106.083 16.0971 110.089 16.0971C114.095 16.0971 117.336 19.6745 117.336 24.0835C117.336 28.4925 114.09 32.0745 110.089 32.0745C106.088 32.0745 102.838 28.4971 102.838 24.0835ZM82.9072 48.1716H106.737V70H113.437V48.1716H124V41.936H82.9095V48.1716H82.9072Z" fill="white"/>
</svg>
