<svg width="429" height="583" viewBox="0 0 429 583" fill="none" xmlns="http://www.w3.org/2000/svg">
<path d="M429 0H0V95.3773H429V0Z" fill="#1F313D"/>
<path d="M214.548 153.786C96.0643 153.786 0 249.834 0 368.345C0 486.856 96.0643 583 214.548 583C333.031 583 429 486.888 429 368.345C429 249.802 333.031 153.786 214.548 153.786ZM214.548 490.594C152.783 490.594 102.771 435.892 102.771 368.377C102.771 300.862 152.815 246.224 214.548 246.224C276.281 246.224 326.261 300.926 326.261 368.377C326.261 435.828 276.217 490.594 214.548 490.594Z" fill="#1F313D"/>
<path d="M429 0H0V95.3773H429V0Z" fill="#B3CF5D"/>
<path d="M214.548 153.786C96.0643 153.786 0 249.834 0 368.345C0 486.856 96.0643 583 214.548 583C333.031 583 429 486.888 429 368.345C429 249.802 333.031 153.786 214.548 153.786ZM214.548 490.594C152.783 490.594 102.771 435.892 102.771 368.377C102.771 300.862 152.815 246.224 214.548 246.224C276.281 246.224 326.261 300.926 326.261 368.377C326.261 435.828 276.217 490.594 214.548 490.594Z" fill="#B3CF5D"/>
</svg>
