<svg width="144" height="364" viewBox="0 0 144 364" fill="none" xmlns="http://www.w3.org/2000/svg">
<g clip-path="url(#clip0_2011_1340)">
<path d="M144 0H-124V59.5495H144V0Z" fill="#1F313D"/>
<path d="M10.0299 96.0173C-63.9878 96.0173 -124 155.986 -124 229.979C-124 303.972 -63.9878 364 10.0299 364C84.0476 364 144 303.992 144 229.979C144 155.966 84.0476 96.0173 10.0299 96.0173ZM10.0299 306.306C-28.5551 306.306 -59.7981 272.152 -59.7981 229.999C-59.7981 187.845 -28.5351 153.731 10.0299 153.731C48.595 153.731 79.8181 187.885 79.8181 229.999C79.8181 272.112 48.555 306.306 10.0299 306.306Z" fill="#1F313D"/>
<path d="M144 0H-124V59.5495H144V0Z" fill="#B3CF5D"/>
<path d="M10.0299 96.0173C-63.9878 96.0173 -124 155.986 -124 229.979C-124 303.972 -63.9878 364 10.0299 364C84.0476 364 144 303.992 144 229.979C144 155.966 84.0476 96.0173 10.0299 96.0173ZM10.0299 306.306C-28.5551 306.306 -59.7981 272.152 -59.7981 229.999C-59.7981 187.845 -28.5351 153.731 10.0299 153.731C48.595 153.731 79.8181 187.885 79.8181 229.999C79.8181 272.112 48.555 306.306 10.0299 306.306Z" fill="#B3CF5D"/>
</g>
<defs>
<clipPath id="clip0_2011_1340">
<rect width="268" height="364" fill="white" transform="translate(-124)"/>
</clipPath>
</defs>
</svg>
