<svg width="199" height="112" viewBox="0 0 199 112" fill="none" xmlns="http://www.w3.org/2000/svg">
<path d="M37.2827 21.8671C33.3243 18.2735 28.083 16.0879 22.3286 16.0879C9.99875 16.0879 0 26.1351 0 38.5336C0 50.9322 9.99875 60.9867 22.3286 60.9867C28.083 60.9867 33.3243 58.7974 37.2827 55.2039V60.9867H47.2045V16.0842H37.2827V21.8671ZM23.9889 51.0133C17.1313 51.0133 11.5785 45.4295 11.5785 38.5336C11.5785 31.6378 17.1313 26.0613 23.9889 26.0613C30.8466 26.0613 36.3921 31.6451 36.3921 38.5336C36.3921 45.4221 30.8392 51.0133 23.9889 51.0133ZM0.777029 112H11.5308V97.4379H38.5692V87.4608H11.5308V77.0746H47.2082V67.0975H0.777029V112ZM64.9332 60.9904V59.8368C64.9332 51.6509 65.9521 43.4024 74.3712 34.7116C79.9167 28.9841 87.8372 26.6216 97.9056 26.6216V16.1027C85.0187 16.1027 74.6827 20.0463 67.1947 27.8194C66.3883 28.656 65.6369 29.5148 64.9332 30.3957V16.0879H55.0114C55.0114 16.0879 55.0041 60.9056 55.0078 61.0236L64.9369 60.9904H64.9332ZM115.015 43.5277H148.918V33.5506H115.015V16.0842H104.261V60.9867H115.015V43.5277ZM126.593 77.0746V67.1012C114.264 67.1012 103.689 75.4161 103.689 89.5469C103.689 103.678 114.264 112 126.593 112V102.027C119.736 102.027 114.183 96.4428 114.183 89.5469C114.183 82.651 119.736 77.0746 126.593 77.0746ZM154.346 0V9.9771H199V0H154.346ZM88.0791 72.8803C84.1207 69.2868 78.8794 67.1012 73.125 67.1012C60.7952 67.1012 50.7964 77.1484 50.7964 89.5469C50.7964 101.946 60.7952 112 73.125 112C78.8794 112 84.1207 109.811 88.0791 106.217V112H98.0009V67.0975H88.0791V72.8803ZM74.789 102.023C67.9314 102.023 62.3786 96.4391 62.3786 89.5432C62.3786 82.6474 67.9314 77.071 74.789 77.071C81.6467 77.071 87.1922 82.6547 87.1922 89.5432C87.1922 96.4317 81.6393 102.023 74.789 102.023ZM199 38.5336C199 26.1351 189.009 16.0879 176.679 16.0879C164.349 16.0879 154.35 26.1351 154.35 38.5336C154.35 50.9322 164.349 60.9867 176.679 60.9867C189.009 60.9867 199 50.9322 199 38.5336ZM165.042 38.5336C165.042 31.4793 170.25 25.7554 176.679 25.7554C183.108 25.7554 188.309 31.4793 188.309 38.5336C188.309 45.588 183.1 51.3192 176.679 51.3192C170.257 51.3192 165.042 45.5954 165.042 38.5336ZM133.055 77.0746H171.298V112H182.052V77.0746H199.004V67.0975H133.059V77.0746H133.055Z" fill="#1F313D"/>
</svg>
